<?xml version="1.0" encoding="utf-8"?>
<!-- Generator: Adobe Illustrator 28.7.4, SVG Export Plug-In . SVG Version: 9.03 Build 55973)  -->
<svg version="1.0" id="Layer_1" xmlns="http://www.w3.org/2000/svg" xmlns:xlink="http://www.w3.org/1999/xlink" x="0px" y="0px"
	 viewBox="0 0 64 64" style="enable-background:new 0 0 64 64;" xml:space="preserve">
<style type="text/css">
	.st0{fill:#FFA658;}
	.st1{fill:#FABC3F;}
	.st2{fill:#7DE294;}
	.st3{fill:#31323A;}
	.st4{fill:#9E9D9D;}
	.st5{fill:#88CC69;}
	.st6{fill:#F7DEDA;}
	.st7{fill:#777676;}
	.st8{fill:#FF4D80;}
	.st9{fill:#FFEBA8;}
	.st10{fill:#8FC3AC;}
	.st11{fill:#A0E9FF;}
	.st12{fill:#FF9F9F;}
	.st13{fill:#D8D8D8;}
	.st14{fill:#4B7663;}
</style>
<g>
	<g>
		<ellipse transform="matrix(0.2298 -0.9732 0.9732 0.2298 8.9302 42.8137)" class="st1" cx="31.5" cy="15.8" rx="9.2" ry="9.2"/>
	</g>
	<g>
		<path class="st6" d="M51.1,40.8l-6.3,4.7c-2.1,1.6-4.7,2.5-7.4,2.5h-0.5c-0.1-2-1-4.5-3.2-4.5l-5.3,0c-5.2-0.3-5.1,3.7-10.5,3.7
			l-6.9-0.1L8.6,57.4c0,0,21.8,0.1,26.8-0.2c5-0.2,8.8-4,8.8-4l9.8-9.3C55.1,42.7,54,38.3,51.1,40.8z"/>
	</g>
	<g>
		<path class="st10" d="M31.5,34.9c0,0-0.5-8.1,9-9.6C40.5,25.3,41.6,34.9,31.5,34.9z"/>
	</g>
	<g>
		<path class="st10" d="M31.5,40.1c0,0,0.5-8.1-9-9.6C22.5,30.4,21.4,40.1,31.5,40.1z"/>
	</g>
	<g>
		<polygon class="st5" points="52.7,35.2 52.7,28.3 55.4,28.3 50.3,20.9 45.3,28.3 48,28.3 48,35.2 		"/>
	</g>
	<g>
		<polygon class="st5" points="16,35.2 16,28.3 18.7,28.3 13.7,20.9 8.6,28.3 11.3,28.3 11.3,35.2 		"/>
	</g>
	<g>
		<path class="st3" d="M15.2,58.3c-3.6,0-6.3,0-6.6,0c-0.5,0-0.9-0.4-0.9-0.9c0-0.5,0.4-0.9,0.9-0.9c0,0,0,0,0,0
			c0.2,0,21.8,0.1,26.8-0.2c4.6-0.2,8.1-3.7,8.2-3.7l9.8-9.3c0.3-0.3,0.3-1.7-0.3-2.2c-0.1-0.1-0.4-0.5-1.4,0.4l-6.3,4.7
			c-2.3,1.7-5.1,2.6-7.9,2.6h-7.4c-0.5,0-0.9-0.4-0.9-0.9c0-0.5,0.4-0.9,0.9-0.9h7.4c2.5,0,4.9-0.8,6.9-2.3l6.3-4.7
			c2-1.7,3.4-0.6,3.8-0.2c1.2,1.2,1.3,3.6,0.2,4.7l-9.8,9.3c-0.1,0.1-4,4-9.3,4.2C32.2,58.3,22.1,58.3,15.2,58.3z"/>
	</g>
	<g>
		<path class="st3" d="M36.7,48.9c-0.5,0-0.9-0.4-0.9-0.9c0-0.4,0.3-0.8,0.7-0.9c0-0.2,0-0.8-0.3-1.4c-0.3-0.5-1-1.3-2.4-1.4h-5.3
			c-2.3-0.1-3.4,0.7-4.6,1.6C22.5,47,21,48.1,18,48L11.1,48c-0.5,0-0.9-0.4-0.9-0.9c0-0.5,0.4-0.9,0.9-0.9c0,0,0,0,0,0l6.9,0.1
			c2.4,0,3.5-0.8,4.8-1.7c1.3-1,2.8-2.1,5.7-1.9l5.3,0c3.1,0,4.5,2.6,4.5,4.3C38.3,48.3,37.5,48.9,36.7,48.9z"/>
	</g>
	<g>
		<path class="st3" d="M31.5,44.4c-0.5,0-0.9-0.4-0.9-0.9V24.9c0-0.5,0.4-0.9,0.9-0.9c0.5,0,0.9,0.4,0.9,0.9v18.6
			C32.4,44,32,44.4,31.5,44.4z"/>
	</g>
	<g>
		<path class="st3" d="M31.5,35.8c-0.5,0-0.9-0.4-0.9-0.8c0-0.1-0.4-8.9,9.8-10.6c0.2,0,0.5,0,0.7,0.2c0.2,0.1,0.3,0.4,0.3,0.6
			c0,0.2,0.5,4.6-2.3,7.7C37.4,34.8,34.8,35.8,31.5,35.8z M39.7,26.4c-6,1.4-7.1,5.7-7.2,7.6c2.3-0.2,4.1-0.9,5.3-2.3
			C39.3,30,39.6,27.7,39.7,26.4z"/>
	</g>
	<g>
		<path class="st3" d="M31.5,41c-3.3,0-5.9-1-7.6-2.9c-2.8-3.1-2.3-7.5-2.3-7.7c0-0.2,0.2-0.5,0.3-0.6c0.2-0.1,0.4-0.2,0.7-0.2
			c10.2,1.7,9.8,10.5,9.8,10.6C32.4,40.6,32,41,31.5,41z M23.4,31.5c0,1.3,0.3,3.6,1.9,5.3c1.2,1.4,3,2.1,5.3,2.3
			C30.4,37.3,29.3,32.9,23.4,31.5z"/>
	</g>
	<g>
		<path class="st3" d="M31.6,19.9c-0.1,0-0.2,0-0.3,0c-1.7-0.1-2.9-1.1-3-2.4c0-0.5,0.3-0.9,0.8-1c0.5,0,0.9,0.3,1,0.8
			c0.1,0.7,1,0.8,1.3,0.8c1,0.1,1.7-0.3,1.8-0.5c0.1-0.5,0.2-0.8-2.7-1.6c-1.8-0.5-2.3-1.8-2.2-2.8c0.2-1.4,1.5-2.6,3-2.6
			c2,0,3.1,1.1,3.3,1.7c0.2,0.5,0,1-0.5,1.2c-0.4,0.2-1,0-1.2-0.4c0-0.1-0.4-0.7-1.7-0.7c-0.6,0-1.2,0.5-1.3,1
			c-0.1,0.5,0.5,0.7,0.9,0.8c2.5,0.7,4.4,1.4,3.9,3.7C34.6,19.3,33.1,19.9,31.6,19.9z"/>
	</g>
	<g>
		<path class="st3" d="M31.6,21.8c-0.5,0-0.9-0.4-0.9-0.9v-1.8c0-0.5,0.4-0.9,0.9-0.9c0.5,0,0.9,0.4,0.9,0.9v1.8
			C32.5,21.4,32.1,21.8,31.6,21.8z"/>
	</g>
	<g>
		<path class="st3" d="M31.6,12.5c-0.5,0-0.9-0.4-0.9-0.9v-1.2c0-0.5,0.4-0.9,0.9-0.9c0.5,0,0.9,0.4,0.9,0.9v1.2
			C32.5,12.1,32.1,12.5,31.6,12.5z"/>
	</g>
	<g>
		<path class="st3" d="M31.5,25.8c-5.5,0-10-4.5-10-10c0-5.5,4.5-10,10-10s10,4.5,10,10C41.6,21.3,37.1,25.8,31.5,25.8z M31.5,7.5
			c-4.6,0-8.3,3.7-8.3,8.3c0,4.6,3.7,8.3,8.3,8.3s8.3-3.7,8.3-8.3C39.8,11.2,36.1,7.5,31.5,7.5z"/>
	</g>
	<g>
		<path class="st3" d="M52.7,36.1c-0.5,0-0.9-0.4-0.9-0.9v-6.9c0-0.5,0.4-0.9,0.9-0.9h1l-3.4-5l-3.4,5h1c0.5,0,0.9,0.4,0.9,0.9v6.9
			c0,0.5-0.4,0.9-0.9,0.9c-0.5,0-0.9-0.4-0.9-0.9v-6h-1.8c-0.3,0-0.6-0.2-0.8-0.5c-0.2-0.3-0.1-0.6,0.1-0.9l5.1-7.4
			c0.3-0.5,1.1-0.5,1.5,0l5.1,7.4c0.2,0.3,0.2,0.6,0.1,0.9c-0.2,0.3-0.5,0.5-0.8,0.5h-1.8v6C53.5,35.7,53.1,36.1,52.7,36.1z"/>
	</g>
	<g>
		<path class="st3" d="M16,36.1c-0.5,0-0.9-0.4-0.9-0.9v-6.9c0-0.5,0.4-0.9,0.9-0.9h1l-3.4-5l-3.4,5h1c0.5,0,0.9,0.4,0.9,0.9v6.9
			c0,0.5-0.4,0.9-0.9,0.9s-0.9-0.4-0.9-0.9v-6H8.6c-0.3,0-0.6-0.2-0.8-0.5c-0.2-0.3-0.1-0.6,0.1-0.9l5.1-7.4c0.3-0.5,1.1-0.5,1.5,0
			l5.1,7.4c0.2,0.3,0.2,0.6,0.1,0.9c-0.2,0.3-0.5,0.5-0.8,0.5h-1.8v6C16.9,35.7,16.5,36.1,16,36.1z"/>
	</g>
</g>
</svg>
